<?xml version="1.0" standalone="no"?>
<!DOCTYPE svg PUBLIC "-//W3C//DTD SVG 20010904//EN"
 "http://www.w3.org/TR/2001/REC-SVG-20010904/DTD/svg10.dtd">
<svg version="1.0" xmlns="http://www.w3.org/2000/svg"
 width="152.000000pt" height="152.000000pt" viewBox="0 0 152.000000 152.000000"
 preserveAspectRatio="xMidYMid meet">
<metadata>
Created by potrace 1.11, written by Peter Selinger 2001-2013
</metadata>
<g transform="translate(0.000000,152.000000) scale(0.100000,-0.100000)"
fill="#000000" stroke="none">
<path d="M818 1485 c-9 -9 -154 -17 -328 -20 -215 -2 -255 -7 -349 -37 -61
-20 -64 -22 -88 -75 -40 -87 -51 -163 -47 -313 2 -74 6 -146 10 -160 3 -14 7
-126 10 -250 3 -167 9 -257 25 -350 23 -138 25 -144 66 -181 68 -62 54 -60
384 -61 633 -1 832 3 864 18 28 13 40 28 86 106 9 15 22 34 28 42 13 15 25
119 24 196 -4 254 -3 383 3 425 15 88 9 313 -10 418 -21 112 -41 144 -115 181
-66 33 -121 44 -246 52 -136 8 -313 13 -317 9z"/>
</g>
</svg>
